# xmcd
#
# Track frame offsets: 
#        150
#        11455
#        19335
#        31875
#        47667
#        60357
#        73250
#        87147
#        100555
#
# Disc length: 1531 seconds
#
# Revision: 1
# Processed by: cddbd v1.5.2PL0 Copyright (c) Steve Scherf et al.
# Submitted via: ExactAudioCopy v1.0b3
#
DISCID=6405f909
DTITLE=Dolly Parton - Just The Way I Am
DYEAR=1999
DGENRE=Country
TTITLE0=Just The Way I Am
TTITLE1=Little Bird
TTITLE2=Mama Say A Prayer
TTITLE3=My Blue Ridge Mountain Home
TTITLE4=In The Good Old Days (When Times Were Bad)
TTITLE5=In The Ghetto
TTITLE6=Daddy Come and Get Me
TTITLE7=The Carroll County Accident
TTITLE8=Gypsy, Joe and Me
EXTD=
EXTT0=
EXTT1=
EXTT2=
EXTT3=
EXTT4=
EXTT5=
EXTT6=
EXTT7=
EXTT8=
PLAYORDER=
